# xmcd CD database file
#
# Track frame offsets:
#	150
#	50600
#	62006
#	109372
#	176671
#	213100
#	227232
#	283500
#	286538
#
# Disc length: 4240 seconds
#
# Revision: 0
# Processed by: cddbd v1.5.2PL0 Copyright (c) Steve Scherf et al.
# Submitted via: CDex 1.60beta1-cs1
#
DISCID=80108e09
DTITLE=Art Pepper - The Legendary 1980 recording session [CD3]
DYEAR=1900
DGENRE=Jazz
TTITLE0=True Blues
TTITLE1=talk, Band and Ophelia Intro
TTITLE2=Ophelia
TTITLE3=Make a List
TTITLE4=Stardust
TTITLE5=talk, 3 out of 4 Red Car false start
TTITLE6=Red Car
TTITLE7=talk, about Straight Life
TTITLE8=Straight Life
EXTD=
EXTT0=
EXTT1=
EXTT2=
EXTT3=
EXTT4=
EXTT5=
EXTT6=
EXTT7=
EXTT8=
PLAYORDER=
